<svg xmlns="http://www.w3.org/2000/svg" viewBox="0 0 256 256">
  <defs>
    <linearGradient id="grad" x1="0%" y1="0%" x2="100%" y2="100%">
      <stop offset="0%" style="stop-color:#2196F3;stop-opacity:1" />
      <stop offset="100%" style="stop-color:#4CAF50;stop-opacity:1" />
    </linearGradient>
  </defs>
  <rect width="256" height="256" fill="url(#grad)" rx="48"/>
  <text x="70" y="190" font-family="Arial, sans-serif" font-size="140" font-weight="bold" fill="#FFFFFF">P</text>
  <path d="M180 80 L180 110 C180 120 185 125 195 125 C205 125 210 120 210 110 L210 80 C210 65 200 55 195 55 C190 55 180 65 180 80 Z" fill="#FFFFFF"/>
  <path d="M170 125 L220 125 L215 140 C213 145 208 148 203 148 L187 148 C182 148 177 145 175 140 Z" fill="#FFFFFF"/>
  <circle cx="210" cy="65" r="8" fill="#FF5252"/>
</svg>